# xmcd
#
# Track frame offsets:
#	150
#	7835
#	17568
#	30587
#	43016
#	53150
#	65347
#	77402
#
# Disc length: 1177 seconds
#
# Revision: 0
# Processed by: cddbd v1.5.1PL2 Copyright (c) Steve Scherf et al.
# Submitted via: dBpowerAMP V4.0
#
DISCID=4f049708
DTITLE=Dolly Parton (& Don Williams) - Dolly Parton and Don Williams [CD 2)
DYEAR=1900
DGENRE=Country
TTITLE0=Puppy Love
TTITLE1=Girl Left Alone
TTITLE2=Little Blossom
TTITLE3=Two Little Orphans
TTITLE4=Release Me
TTITLE5=Letter to Heaven
TTITLE6=Making Belive
TTITLE7=(it Wasn't God Who Made) Honky Tonk Angels
EXTD=
EXTT0=
EXTT1=
EXTT2=
EXTT3=
EXTT4=
EXTT5=
EXTT6=
EXTT7=
PLAYORDER=
